Coordinates
version=1
nRows=25
nColumns=33
inDegrees=yes

Units are S.I. units (second, meters, Newtons, ...)
Angles are in degrees.

endheader
time	ground_thorax_rot_x	ground_thorax_rot_y	ground_thorax_rot_z	ground_thorax_tx	ground_thorax_ty	ground_thorax_tz	clav_prot_r	clav_elev_r	scapula_abduction_r	scapula_elevation_r	scapula_upward_rot_r	scapula_winging_r	shoulder_elv_r	plane_of_elev_r	axial_rot_r	elbow_flexion_r	pro_sup_r	wrist_flex_r	wrist_dev_r	clav_prot_l	clav_elev_l	scapula_abduction_l	scapula_elevation_l	scapula_upward_rot_l	scapula_winging_l	shoulder_elv_l	plane_of_elev_l	axial_rot_l	elbow_flexion_l	pro_sup_l	wrist_flex_l	wrist_dev_l	
8.5300	29.989858	31.416247	40.949894	-12.915780	783.602467	-40.316926	12.928200	35.573664	26.830439	45.000000	-45.000000	-2245.452838	-4247.777070	20.542233	-155.732609	1.026076	171.008546	12.969490	13.237735	-11.851739	-45.000000	-35.474657	45.000000	-45.000000	-1337.890364	795.449844	23.958805	23.107811	1789.181038	405.445548	13.022311	-16.121063	
8.5400	30.062105	31.181329	40.695098	-16.100728	784.854728	-40.280158	12.900652	35.555844	26.795501	45.000000	-45.000000	-2245.619817	-4247.718457	20.575594	-155.839756	0.999494	170.659883	12.997806	13.278682	-11.702680	-45.000000	-35.604528	45.000000	-45.000000	-1337.740481	795.570273	23.989638	23.071565	1789.219748	405.410265	13.051714	-16.224040	
8.5500	30.127950	30.948608	40.449431	-19.254949	786.159480	-40.271256	12.879534	35.528078	26.755923	45.000000	-45.000000	-2245.784716	-4247.654955	20.610813	-155.945505	0.969831	170.332384	13.027119	13.320005	-11.547429	-45.000000	-35.734599	45.000000	-45.000000	-1337.590600	795.693132	24.018324	23.033192	1789.263346	405.388809	13.075817	-16.328414	
8.5600	30.189949	30.715608	40.208560	-22.371070	787.515913	-40.290887	12.865153	35.493526	26.715026	45.000000	-45.000000	-2245.945851	-4247.588703	20.647556	-156.049885	0.937367	170.022905	13.057482	13.362772	-11.388721	-45.000000	-35.866770	45.000000	-45.000000	-1337.442881	795.817798	24.044716	22.997230	1789.310054	405.381071	13.094277	-16.434319	
8.5700	30.247833	30.485071	39.973286	-25.442486	788.923017	-40.339165	12.859123	35.450436	26.672058	45.000000	-45.000000	-2246.103313	-4247.519797	20.684266	-156.152627	0.902451	169.727911	13.089223	13.406457	-11.228677	-45.000000	-35.999131	45.000000	-45.000000	-1337.298945	795.946175	24.069034	22.969092	1789.357202	405.384813	13.106703	-16.539845	
8.5800	30.304334	30.254714	39.740227	-28.463504	790.378727	-40.415889	12.858225	35.404221	26.631482	45.000000	-45.000000	-2246.256612	-4247.450265	20.720377	-156.252937	0.866180	169.444816	13.122637	13.451671	-11.068380	-45.000000	-36.134217	45.000000	-45.000000	-1337.158789	796.075239	24.091997	22.948082	1789.402690	405.396036	13.114917	-16.644716	
8.5900	30.359599	30.027381	39.509510	-31.429375	791.879961	-40.520574	12.861510	35.354851	26.593609	45.000000	-45.000000	-2246.407384	-4247.379928	20.754500	-156.350970	0.829750	169.171354	13.158258	13.498066	-10.908894	-45.000000	-36.269840	45.000000	-45.000000	-1337.022835	796.204714	24.115961	22.937732	1789.444718	405.408591	13.120728	-16.747006	
8.6000	30.414166	29.800788	39.281175	-34.335651	793.422148	-40.652663	12.864849	35.307141	26.562504	45.000000	-45.000000	-2246.556260	-4247.311549	20.786812	-156.445703	0.793167	168.906614	13.197065	13.546072	-10.749931	-45.000000	-36.406475	45.000000	-45.000000	-1336.887846	796.331186	24.142310	22.929862	1789.484353	405.414948	13.127495	-16.846952	
8.6100	30.466359	29.577103	39.056825	-37.178021	795.000150	-40.811585	12.867582	35.260525	26.537381	45.000000	-45.000000	-2246.704070	-4247.245482	20.816151	-156.536697	0.756035	168.649728	13.239888	13.595194	-10.591395	-45.000000	-36.542737	45.000000	-45.000000	-1336.754263	796.456223	24.171515	22.926648	1789.522282	405.406606	13.136596	-16.941689	
8.6200	30.516400	29.353456	38.837988	-39.951700	796.608695	-40.996785	12.867147	35.220093	26.522937	45.000000	-45.000000	-2246.851808	-4247.185324	20.843288	-156.625308	0.720148	168.399566	13.286959	13.645194	-10.433743	-45.000000	-36.678059	45.000000	-45.000000	-1336.618077	796.577834	24.204001	22.923483	1789.560106	405.375171	13.150672	-17.030880	
8.6300	30.565092	29.130022	38.621980	-42.651444	798.243783	-41.207364	12.863108	35.186893	26.520590	45.000000	-45.000000	-2246.999508	-4247.132608	20.866840	-156.715047	0.685074	168.154479	13.338027	13.696341	-10.279648	-45.000000	-36.810884	45.000000	-45.000000	-1336.481873	796.697880	24.240536	22.929142	1789.597456	405.313004	13.170733	-17.112461	
8.6400	30.613735	28.904406	38.408819	-45.272015	799.902891	-41.441876	12.855699	35.162036	26.532534	45.000000	-45.000000	-2247.146912	-4247.089271	20.887876	-156.808499	0.650855	167.911502	13.391951	13.749232	-10.131053	-45.000000	-36.940076	45.000000	-45.000000	-1336.345089	796.814003	24.279932	22.942472	1789.635341	405.214673	13.197779	-17.187233	
8.6500	30.661891	28.680658	38.198216	-47.809430	801.585257	-41.698032	12.851169	35.135933	26.550991	45.000000	-45.000000	-2247.291341	-4247.049671	20.907084	-156.908611	0.614929	167.665190	13.446180	13.805204	-9.987151	-45.000000	-37.066648	45.000000	-45.000000	-1336.213473	796.929918	24.318458	22.967900	1789.674689	405.077714	13.229277	-17.254002	
8.6600	30.707033	28.459838	37.993763	-50.261268	803.290883	-41.972455	12.849389	35.107565	26.571515	45.000000	-45.000000	-2247.430368	-4247.012302	20.926132	-157.016166	0.577792	167.408768	13.498647	13.862246	-9.845004	-45.000000	-37.193130	45.000000	-45.000000	-1336.086681	797.046776	24.354570	23.005864	1789.710771	404.904258	13.263612	-17.311927	
8.6700	30.746743	28.246255	37.796550	-52.626838	805.019794	-42.260399	12.855325	35.069555	26.586429	45.000000	-45.000000	-2247.561398	-4246.972298	20.945774	-157.129535	0.537221	167.134781	13.547351	13.919633	-9.703281	-45.000000	-37.321143	45.000000	-45.000000	-1335.969231	797.169159	24.385592	23.055872	1789.743394	404.699514	13.297960	-17.362137	
8.6800	30.782318	28.037472	37.606459	-54.906621	806.771132	-42.556033	12.863635	35.028460	26.600912	45.000000	-45.000000	-2247.686900	-4246.933667	20.966891	-157.247491	0.495651	166.837385	13.592050	13.975234	-9.560287	-45.000000	-37.451095	45.000000	-45.000000	-1335.856615	797.293709	24.414565	23.119547	1789.770669	404.472615	13.332270	-17.409389	
8.6900	30.815325	27.833291	37.420917	-57.101835	808.543043	-42.853028	12.874418	34.983420	26.615625	45.000000	-45.000000	-2247.807540	-4246.895468	20.988695	-157.369184	0.450296	166.512713	13.633224	14.029201	-9.416110	-45.000000	-37.581523	45.000000	-45.000000	-1335.749188	797.419919	24.442810	23.196258	1789.795464	404.233889	13.365620	-17.459191	
8.7000	30.845823	27.632318	37.240638	-59.213357	810.332804	-43.145271	12.883284	34.940760	26.634939	45.000000	-45.000000	-2247.924766	-4246.860823	21.010962	-157.495798	0.404058	166.158455	13.670884	14.079759	-9.271094	-45.000000	-37.711432	45.000000	-45.000000	-1335.645096	797.543255	24.473074	23.287490	1789.817168	403.993998	13.397978	-17.515551	
8.7100	30.878322	27.436122	37.062605	-61.241576	812.137510	-43.427550	12.891113	34.899439	26.659257	45.000000	-45.000000	-2248.040241	-4246.829366	21.032585	-157.624563	0.354517	165.774079	13.705343	14.128066	-9.127318	-45.000000	-37.838000	45.000000	-45.000000	-1335.541992	797.662144	24.503323	23.387552	1789.839127	403.760957	13.429454	-17.583027	
8.7200	30.914216	27.244325	36.884973	-63.185829	813.954066	-43.696050	12.899294	34.860500	26.688162	45.000000	-45.000000	-2248.154001	-4246.799878	21.054560	-157.757695	0.302351	165.358692	13.734845	14.174851	-8.989432	-45.000000	-37.960950	45.000000	-45.000000	-1335.445084	797.774269	24.534081	23.497192	1789.861515	403.539788	13.459966	-17.661868	
8.7300	30.953452	27.057481	36.708241	-65.045376	815.779850	-43.948640	12.906268	34.822037	26.719378	45.000000	-45.000000	-2248.263780	-4246.772353	21.077721	-157.893789	0.248632	164.913126	13.757489	14.221480	-8.850005	-45.000000	-38.083891	45.000000	-45.000000	-1335.349568	797.877956	24.565377	23.609283	1789.883649	403.331043	13.489981	-17.751411	
8.7400	30.993116	26.874581	36.533205	-66.819088	817.612202	-44.184595	12.914114	34.781528	26.750218	45.000000	-45.000000	-2248.365054	-4246.745530	21.105096	-158.031779	0.194882	164.438668	13.770049	14.268756	-8.709198	-45.000000	-38.206365	45.000000	-45.000000	-1335.260596	797.976501	24.598330	23.723030	1789.900479	403.131251	13.521205	-17.846974	
8.7500	31.029202	26.703668	36.366629	-68.506565	819.448878	-44.404252	12.921496	34.738149	26.774967	45.000000	-45.000000	-2248.458656	-4246.718822	21.134332	-158.170038	0.138168	163.935658	13.773013	14.315391	-8.560686	-45.000000	-38.333686	45.000000	-45.000000	-1335.171330	798.070971	24.630340	23.833008	1789.911679	402.932203	13.553077	-17.942511	
8.7600	31.060383	26.546016	36.208123	-70.107573	821.287223	-44.608413	12.931581	34.693098	26.794284	45.000000	-45.000000	-2248.546648	-4246.691494	21.165372	-158.313402	0.075613	163.405057	13.766473	14.361517	-8.413251	-45.000000	-38.463333	45.000000	-45.000000	-1335.089434	798.163970	24.662460	23.943792	1789.918178	402.722912	13.586832	-18.033633	
8.7700	31.084312	26.405796	36.061920	-71.623187	823.124892	-44.797990	12.940227	34.647001	26.806410	45.000000	-45.000000	-2248.630833	-4246.663599	21.195926	-158.462956	0.004467	162.849695	13.752892	14.406066	-8.258067	-45.000000	-38.599124	45.000000	-45.000000	-1335.006908	798.252507	24.694361	24.052687	1789.920777	402.491524	13.622762	-18.116406	
